HIERARCHY
ROOT Hips
{
	OFFSET 0.00000 0.00000 0.00000
	CHANNELS 6 Xposition Yposition Zposition Zrotation Yrotation Xrotation 
	JOINT LHipJoint
	{
		OFFSET 0 0 0
		CHANNELS 3 Zrotation Yrotation Xrotation
		JOINT LeftHip
		{
			OFFSET 1.48831 -1.59570 0.95625
			CHANNELS 3 Zrotation Yrotation Xrotation
			JOINT LeftKnee
			{
				OFFSET 2.20856 -6.06797 0.00000
				CHANNELS 3 Zrotation Yrotation Xrotation
				JOINT LeftAnkle
				{
					OFFSET 2.62924 -7.22379 0.00000
					CHANNELS 3 Zrotation Yrotation Xrotation
					JOINT LeftToe
					{
						OFFSET 0.16802 -0.46163 2.41673
						CHANNELS 3 Zrotation Yrotation Xrotation
						End Site
						{
							OFFSET 0.00000 -0.00000 1.23760
						}
					}
				}
			}
		}
	}
	JOINT RHipJoint
	{
		OFFSET 0 0 0
		CHANNELS 3 Zrotation Yrotation Xrotation
		JOINT RightHip
		{
			OFFSET -1.56796 -1.59570 0.95625
			CHANNELS 3 Zrotation Yrotation Xrotation
			JOINT RightKnee
			{
				OFFSET -2.29239 -6.29829 0.00000
				CHANNELS 3 Zrotation Yrotation Xrotation
				JOINT RightAnkle
				{
					OFFSET -2.66963 -7.33475 0.00000
					CHANNELS 3 Zrotation Yrotation Xrotation
					JOINT RightToe
					{
						OFFSET -0.18185 -0.49964 2.34359
						CHANNELS 3 Zrotation Yrotation Xrotation
						End Site
						{
							OFFSET -0.00000 -0.00000 1.20477
						}
					}
				}
			}
		}
	}
	JOINT lowerback
	{
		OFFSET 0 0 0
		CHANNELS 3 Zrotation Yrotation Xrotation
		JOINT Chest
		{
			OFFSET 0.03505 2.15832 -0.34324
			CHANNELS 3 Zrotation Yrotation Xrotation
			JOINT Chest2
			{
				OFFSET -0.01089 2.17963 0.04689
				CHANNELS 3 Zrotation Yrotation Xrotation
				JOINT lowerneck
				{
					OFFSET 0 0 0
					CHANNELS 3 Zrotation Yrotation Xrotation
					JOINT Neck
					{
						OFFSET 0.04686 1.69404 0.22159
						CHANNELS 3 Zrotation Yrotation Xrotation
						JOINT Head
						{
							OFFSET 0.00265 1.69305 -0.01513
							CHANNELS 3 Zrotation Yrotation Xrotation
							End Site
							{
								OFFSET -0.00415 1.80215 -0.03034
							}
						}
					}
				}
				JOINT LeftCollar
				{
					OFFSET 0 0 0
					CHANNELS 3 Zrotation Yrotation Xrotation
					JOINT LeftShoulder
					{
						OFFSET 3.67184 1.11724 -0.19002
CHANNELS 3 Zrotation Xrotation Yrotation
						JOINT LeftElbow
						{
OFFSET 0 -5.177140 -0.000000
CHANNELS 3 Zrotation Xrotation Yrotation
							JOINT LeftWrist
							{
OFFSET 0 -3.436790 -0.000000
CHANNELS 3 Zrotation Xrotation Yrotation
								JOINT lhand
								{
									OFFSET 0 0 0
CHANNELS 3 Zrotation Xrotation Yrotation
									JOINT LFingers
									{
OFFSET 0 -0.573120 -0.000000
CHANNELS 3 Zrotation Xrotation Yrotation
										End Site
										{
OFFSET 0 -0.462060 -0.000000
										}
									}
								}
								JOINT LThumb
								{
OFFSET 0 0.000000 0.000000
CHANNELS 3 Zrotation Xrotation Yrotation
									End Site
									{
OFFSET 0 -0.469120 0.469120
									}
								}
							}
						}
					}
				}
				JOINT RightCollar
				{
					OFFSET 0 0 0
					CHANNELS 3 Zrotation Yrotation Xrotation
					JOINT RightShoulder
					{
						OFFSET -3.59596 0.95831 -0.26050
CHANNELS 3 Zrotation Xrotation Yrotation
						JOINT RightElbow
						{
OFFSET 0 -5.239080 -0.000000
CHANNELS 3 Zrotation Xrotation Yrotation
							JOINT RightWrist
							{
OFFSET 0 -3.464850 -0.000000
CHANNELS 3 Zrotation Xrotation Yrotation
								JOINT rhand
								{
									OFFSET 0 0 0
CHANNELS 3 Zrotation Xrotation Yrotation
									JOINT RFingers
									{
OFFSET 0 -0.608750 -0.000000
CHANNELS 3 Zrotation Xrotation Yrotation
										End Site
										{
OFFSET 0 -0.490790 -0.000000
										}
									}
								}
								JOINT RThumb
								{
OFFSET 0 0.000000 0.000000
CHANNELS 3 Zrotation Xrotation Yrotation
									End Site
									{
OFFSET 0 -0.498290 0.498290
									}
								}
							}
						}
					}
				}
			}
		}
	}
}
MOTION
Frames: 6
Frame Time: 0.008333333333333333
5.039716 16.290190 -24.000482 -540.814653 -59.130833 538.471553 0.000000 0.000000 0.000000 -18.742128 5.655367 -6.875644 2.216786 9.303759 26.750060 0.890091 -4.558709 -16.879575 0.136535 -2.381498 -6.561073 0.000000 0.000000 0.000000 18.243756 21.888882 -8.826112 -4.068824 -12.251357 36.627084 -0.718606 12.007455 -16.178392 -0.054467 -1.505248 4.140130 4.217579 0.498617 1.749213 1.645448 0.637917 1.842922 -0.680399 0.331260 0.940945 3.131592 2.071795 8.760705 -2.974329 2.493023 -17.767999 -1.668227 1.113663 -6.772846 0.000000 0.000000 0.000000 26.280425 -19.234344 6.008617 14.007630 -22.745521 2.831057 41.856128 -17.682962 0.614243 0.000000 0.000000 0.000000 -7.125000 0.000000 0.000000 11.888581 29.060113 4.709814 0.000000 0.000000 0.000000 -16.754872 -60.762566 63.954532 -23.661131 -34.803632 -7.512315 -52.208068 1.687338 -2.091245 0.000000 0.000000 0.000000 7.125000 0.000000 0.000000 -19.234715 26.422352 -9.159728
5.013518 16.270028 -23.897430 -541.362578 -58.438773 538.801406 0.000000 0.000000 0.000000 -19.531496 6.214277 -6.626014 2.140341 9.152495 26.273469 0.946593 -4.150915 -17.463015 0.103702 -2.076199 -5.716222 0.000000 0.000000 0.000000 17.448038 21.940368 -9.180846 -4.158511 -12.368409 37.048009 -0.663533 12.797986 -15.946716 -0.028299 -1.084890 2.982401 4.052962 0.356877 1.728570 1.618262 0.447486 1.841781 -0.614853 0.234958 0.941628 3.673283 2.774886 8.626476 -3.329503 3.519993 -16.884802 -1.936098 1.624856 -6.414924 0.000000 0.000000 0.000000 25.879416 -18.477543 5.726537 13.347623 -21.794359 2.581006 41.541469 -16.818930 0.436466 0.000000 0.000000 0.000000 -7.125000 0.000000 0.000000 11.675033 29.300594 4.553722 0.000000 0.000000 0.000000 -14.310290 -59.524390 68.441084 -24.943040 -36.145054 -8.256512 -51.592480 0.331436 -1.850997 0.000000 0.000000 0.000000 7.125000 0.000000 0.000000 -18.865665 26.840644 -8.766743
4.987769 16.251486 -23.793814 -541.941042 -57.882018 539.175898 0.000000 0.000000 0.000000 -20.349906 6.685107 -6.414325 2.065394 9.001001 25.798395 0.996920 -3.757072 -17.985899 0.080750 -1.832629 -5.043366 0.000000 0.000000 0.000000 16.593770 21.962736 -9.582580 -4.251795 -12.488071 37.481294 -0.600013 13.620428 -15.687923 -0.017564 -0.855584 2.351605 3.867785 0.114199 1.594576 1.555909 0.114477 1.900788 -0.572293 0.069803 1.063091 4.370892 3.559276 8.263991 -3.737050 4.657998 -15.831664 -2.233228 2.189111 -5.947329 0.000000 0.000000 0.000000 25.494678 -17.613493 5.297691 12.812630 -21.011973 2.385794 41.130909 -15.926231 0.085058 0.000000 0.000000 0.000000 -7.125000 0.000000 0.000000 11.411954 29.766976 4.317852 0.000000 0.000000 0.000000 -12.160886 -58.482499 72.760714 -26.348426 -37.549758 -9.099525 -50.922759 -0.691586 -1.753376 0.000000 0.000000 0.000000 7.125000 0.000000 0.000000 -18.411062 27.039103 -8.441755
4.966398 16.234743 -23.690875 -542.376591 -57.310854 539.452379 0.000000 0.000000 0.000000 -21.059218 7.071449 -6.293032 2.006965 8.880585 25.422615 1.035671 -3.506891 -18.381196 0.054522 -1.505391 -4.140675 0.000000 0.000000 0.000000 15.828451 22.111358 -9.996912 -4.342114 -12.602226 37.897239 -0.524101 14.331937 -15.310918 -0.014554 -0.778253 2.139013 3.643486 -0.191381 1.438705 1.533579 -0.306418 1.997888 -0.468091 -0.140027 1.234678 5.057304 4.408312 7.864214 -4.048593 5.877807 -14.881700 -2.487802 2.787332 -5.497151 0.000000 0.000000 0.000000 24.975162 -16.815271 5.162279 12.252882 -20.182745 2.188857 40.732255 -14.831758 -0.306134 0.000000 0.000000 0.000000 -7.125000 0.000000 0.000000 11.159995 30.279864 4.079772 0.000000 0.000000 0.000000 -10.092888 -57.526799 76.828942 -27.953352 -39.072276 -10.094691 -50.602179 -1.289556 -1.393081 0.000000 0.000000 0.000000 7.125000 0.000000 0.000000 -18.279612 27.600734 -8.118541
4.947233 16.217720 -23.586729 -542.737760 -56.767399 539.644316 0.000000 0.000000 0.000000 -21.681650 7.442314 -6.274087 1.973838 8.811454 25.207167 1.056583 -3.523955 -18.570051 0.027648 -1.072957 -2.949502 0.000000 0.000000 0.000000 15.105940 22.263387 -10.419733 -4.436389 -12.719451 38.327298 -0.441322 14.950682 -14.858922 -0.012039 -0.707234 1.943694 3.344663 -0.553593 1.283559 1.569856 -0.806857 2.145308 -0.264370 -0.391608 1.459750 5.580217 5.292448 7.679589 -4.213924 7.134598 -14.285614 -2.672501 3.398193 -5.194807 0.000000 0.000000 0.000000 24.231100 -16.159521 5.307940 11.646754 -19.272632 1.984217 40.419626 -13.853573 -0.699029 0.000000 0.000000 0.000000 -7.125000 0.000000 0.000000 10.971457 30.789371 3.872174 0.000000 0.000000 0.000000 -8.158885 -56.614052 80.598121 -29.735922 -40.665332 -11.237296 -50.414054 -1.782761 -0.602998 0.000000 0.000000 0.000000 7.125000 0.000000 0.000000 -18.362645 28.788952 -7.611829
4.931840 16.197325 -23.479893 -543.096204 -56.251961 539.843623 0.000000 0.000000 0.000000 -22.265386 7.914435 -6.422408 1.960698 8.783777 25.121278 1.068934 -3.728628 -18.652593 0.015137 -0.794534 -2.183708 0.000000 0.000000 0.000000 14.364137 22.360857 -10.963079 -4.551980 -12.860666 38.849294 -0.348049 15.501357 -14.298688 -0.013567 -0.751686 2.065767 3.025357 -0.924267 1.124936 1.609436 -1.317410 2.283934 -0.049346 -0.649870 1.683851 6.045016 6.166710 7.678819 -4.379395 8.373782 -13.822959 -2.846128 4.005151 -4.961062 0.000000 0.000000 0.000000 23.367750 -15.675045 5.404964 11.004747 -18.295473 1.777451 39.786793 -12.803703 -1.407052 0.000000 0.000000 0.000000 -7.125000 0.000000 0.000000 10.567351 31.696757 3.491059 0.000000 0.000000 0.000000 -6.565801 -55.741648 83.892207 -31.614887 -42.237692 -12.481353 -49.817226 -2.980061 -0.161868 0.000000 0.000000 0.000000 7.125000 0.000000 0.000000 -18.038745 29.464092 -7.158079
